<svg xmlns="http://www.w3.org/2000/svg" version="1.1" xmlns:xlink="http://www.w3.org/1999/xlink" xmlns:svgjs="http://svgjs.dev/svgjs" viewBox="0 0 800 800"><circle r="14" cx="133" cy="502" fill="hsl(240, 75%, 70%)" opacity="0.59"></circle><circle r="4" cx="503" cy="518" fill="hsl(141, 75%, 70%)" opacity="0.43"></circle><circle r="12.5" cx="347" cy="85" fill="hsl(167, 75%, 70%)" opacity="0.79"></circle><circle r="6" cx="482" cy="525" fill="hsl(126, 75%, 70%)" opacity="0.66"></circle><circle r="7" cx="349" cy="326" fill="hsl(67, 75%, 70%)" opacity="0.13"></circle><circle r="9.5" cx="251" cy="513" fill="hsl(92, 75%, 70%)" opacity="0.24"></circle><circle r="9.5" cx="181" cy="223" fill="hsl(177, 75%, 70%)" opacity="0.46"></circle><circle r="13.5" cx="16" cy="128" fill="hsl(309, 75%, 70%)" opacity="0.50"></circle><circle r="6.5" cx="686" cy="646" fill="hsl(199, 75%, 70%)" opacity="0.67"></circle><circle r="10.5" cx="246" cy="773" fill="hsl(103, 75%, 70%)" opacity="0.34"></circle><circle r="7.5" cx="696" cy="306" fill="hsl(200, 75%, 70%)" opacity="0.43"></circle><circle r="11" cx="699" cy="45" fill="hsl(259, 75%, 70%)" opacity="0.68"></circle><circle r="11.5" cx="401" cy="26" fill="hsl(200, 75%, 70%)" opacity="0.87"></circle><circle r="7" cx="293" cy="332" fill="hsl(71, 75%, 70%)" opacity="0.36"></circle><circle r="9.5" cx="340" cy="525" fill="hsl(67, 75%, 70%)" opacity="0.31"></circle><circle r="10" cx="635" cy="483" fill="hsl(192, 75%, 70%)" opacity="0.15"></circle><circle r="6.5" cx="460" cy="760" fill="hsl(111, 75%, 70%)" opacity="0.60"></circle><circle r="10.5" cx="593" cy="496" fill="hsl(183, 75%, 70%)" opacity="0.41"></circle><circle r="9.5" cx="674" cy="486" fill="hsl(197, 75%, 70%)" opacity="0.95"></circle><circle r="7" cx="749" cy="333" fill="hsl(202, 75%, 70%)" opacity="0.32"></circle><circle r="8" cx="411" cy="221" fill="hsl(85, 75%, 70%)" opacity="0.71"></circle><circle r="11" cx="145" cy="168" fill="hsl(253, 75%, 70%)" opacity="0.41"></circle><circle r="11.5" cx="94" cy="17" fill="hsl(295, 75%, 70%)" opacity="0.36"></circle><circle r="7" cx="475" cy="488" fill="hsl(126, 75%, 70%)" opacity="0.26"></circle><circle r="6.5" cx="335" cy="243" fill="hsl(66, 75%, 70%)" opacity="0.69"></circle><circle r="10.5" cx="562" cy="29" fill="hsl(136, 75%, 70%)" opacity="0.50"></circle><circle r="8" cx="612" cy="628" fill="hsl(186, 75%, 70%)" opacity="0.71"></circle><circle r="13.5" cx="651" cy="149" fill="hsl(238, 75%, 70%)" opacity="0.47"></circle><circle r="8" cx="318" cy="422" fill="hsl(66, 75%, 70%)" opacity="0.31"></circle><circle r="7" cx="468" cy="192" fill="hsl(119, 75%, 70%)" opacity="0.30"></circle><circle r="6" cx="140" cy="358" fill="hsl(225, 75%, 70%)" opacity="0.98"></circle><circle r="17.5" cx="71" cy="542" fill="hsl(295, 75%, 70%)" opacity="0.69"></circle><circle r="8.5" cx="278" cy="375" fill="hsl(76, 75%, 70%)" opacity="0.90"></circle><circle r="11" cx="678" cy="270" fill="hsl(199, 75%, 70%)" opacity="0.23"></circle><circle r="12" cx="224" cy="119" fill="hsl(204, 75%, 70%)" opacity="0.39"></circle><circle r="9" cx="745" cy="210" fill="hsl(202, 75%, 70%)" opacity="0.35"></circle><circle r="7" cx="267" cy="284" fill="hsl(83, 75%, 70%)" opacity="0.15"></circle><circle r="11.5" cx="106" cy="228" fill="hsl(267, 75%, 70%)" opacity="0.94"></circle><circle r="5" cx="476" cy="788" fill="hsl(126, 75%, 70%)" opacity="0.94"></circle><circle r="7.5" cx="504" cy="713" fill="hsl(141, 75%, 70%)" opacity="0.82"></circle><circle r="12" cx="533" cy="666" fill="hsl(155, 75%, 70%)" opacity="0.77"></circle><circle r="9.5" cx="543" cy="780" fill="hsl(162, 75%, 70%)" opacity="0.76"></circle><circle r="10" cx="137" cy="738" fill="hsl(240, 75%, 70%)" opacity="0.38"></circle><circle r="5" cx="233" cy="205" fill="hsl(115, 75%, 70%)" opacity="0.60"></circle><circle r="6.5" cx="148" cy="293" fill="hsl(225, 75%, 70%)" opacity="0.57"></circle><circle r="12" cx="732" cy="403" fill="hsl(202, 75%, 70%)" opacity="0.79"></circle><circle r="17.5" cx="64" cy="246" fill="hsl(295, 75%, 70%)" opacity="0.95"></circle><circle r="11" cx="619" cy="377" fill="hsl(190, 75%, 70%)" opacity="0.20"></circle><circle r="6.5" cx="458" cy="698" fill="hsl(111, 75%, 70%)" opacity="0.57"></circle><circle r="9" cx="712" cy="552" fill="hsl(200, 75%, 70%)" opacity="0.89"></circle><circle r="10.5" cx="750" cy="23" fill="hsl(277, 75%, 70%)" opacity="0.87"></circle><circle r="5" cx="269" cy="244" fill="hsl(83, 75%, 70%)" opacity="0.89"></circle><circle r="9.5" cx="34" cy="319" fill="hsl(308, 75%, 70%)" opacity="0.71"></circle><circle r="12" cx="96" cy="358" fill="hsl(278, 75%, 70%)" opacity="0.18"></circle><circle r="7" cx="206" cy="575" fill="hsl(144, 75%, 70%)" opacity="0.10"></circle><circle r="10.5" cx="647" cy="109" fill="hsl(241, 75%, 70%)" opacity="0.40"></circle><circle r="11" cx="265" cy="36" fill="hsl(255, 75%, 70%)" opacity="0.12"></circle><circle r="7" cx="768" cy="787" fill="hsl(202, 75%, 70%)" opacity="0.96"></circle><circle r="7.5" cx="199" cy="649" fill="hsl(160, 75%, 70%)" opacity="0.12"></circle><circle r="10.5" cx="98" cy="617" fill="hsl(278, 75%, 70%)" opacity="0.89"></circle><circle r="8.5" cx="193" cy="268" fill="hsl(160, 75%, 70%)" opacity="0.97"></circle><circle r="7" cx="661" cy="665" fill="hsl(196, 75%, 70%)" opacity="0.91"></circle><circle r="6.5" cx="471" cy="449" fill="hsl(119, 75%, 70%)" opacity="0.17"></circle><circle r="10.5" cx="607" cy="544" fill="hsl(186, 75%, 70%)" opacity="0.42"></circle><circle r="14" cx="167" cy="21" fill="hsl(305, 75%, 70%)" opacity="0.30"></circle><circle r="5.5" cx="132" cy="791" fill="hsl(240, 75%, 70%)" opacity="0.52"></circle><circle r="7.5" cx="571" cy="259" fill="hsl(173, 75%, 70%)" opacity="0.96"></circle><circle r="5.5" cx="429" cy="650" fill="hsl(97, 75%, 70%)" opacity="0.95"></circle><circle r="16" cx="58" cy="707" fill="hsl(302, 75%, 70%)" opacity="0.48"></circle><circle r="8.5" cx="486" cy="150" fill="hsl(134, 75%, 70%)" opacity="0.45"></circle><circle r="9.5" cx="579" cy="575" fill="hsl(178, 75%, 70%)" opacity="0.16"></circle><circle r="12.5" cx="36" cy="279" fill="hsl(308, 75%, 70%)" opacity="0.89"></circle><circle r="7.5" cx="524" cy="73" fill="hsl(152, 75%, 70%)" opacity="0.20"></circle><circle r="21.5" cx="25" cy="502" fill="hsl(308, 75%, 70%)" opacity="0.30"></circle><circle r="11.5" cx="78" cy="586" fill="hsl(288, 75%, 70%)" opacity="0.89"></circle><circle r="7.5" cx="149" cy="770" fill="hsl(225, 75%, 70%)" opacity="0.19"></circle><circle r="8" cx="258" cy="163" fill="hsl(106, 75%, 70%)" opacity="0.28"></circle><circle r="7.5" cx="494" cy="216" fill="hsl(134, 75%, 70%)" opacity="0.73"></circle><circle r="11" cx="665" cy="20" fill="hsl(217, 75%, 70%)" opacity="0.27"></circle><circle r="19.5" cx="32" cy="617" fill="hsl(308, 75%, 70%)" opacity="0.90"></circle><circle r="11" cx="131" cy="255" fill="hsl(240, 75%, 70%)" opacity="0.68"></circle><circle r="7" cx="548" cy="497" fill="hsl(162, 75%, 70%)" opacity="0.39"></circle><circle r="8.5" cx="470" cy="18" fill="hsl(157, 75%, 70%)" opacity="0.36"></circle><circle r="18" cx="87" cy="300" fill="hsl(288, 75%, 70%)" opacity="0.81"></circle><circle r="8.5" cx="772" cy="359" fill="hsl(202, 75%, 70%)" opacity="0.22"></circle><circle r="7" cx="344" cy="592" fill="hsl(67, 75%, 70%)" opacity="0.89"></circle><circle r="6" cx="600" cy="437" fill="hsl(183, 75%, 70%)" opacity="0.66"></circle><circle r="8.5" cx="637" cy="647" fill="hsl(192, 75%, 70%)" opacity="0.49"></circle><circle r="14.5" cx="84" cy="661" fill="hsl(288, 75%, 70%)" opacity="0.47"></circle><circle r="11" cx="13" cy="343" fill="hsl(309, 75%, 70%)" opacity="0.36"></circle><circle r="5.5" cx="72" cy="792" fill="hsl(295, 75%, 70%)" opacity="0.31"></circle><circle r="5.5" cx="338" cy="784" fill="hsl(67, 75%, 70%)" opacity="0.81"></circle><circle r="6.5" cx="418" cy="492" fill="hsl(91, 75%, 70%)" opacity="0.54"></circle><circle r="19.5" cx="89" cy="466" fill="hsl(278, 75%, 70%)" opacity="0.71"></circle><circle r="7.5" cx="230" cy="687" fill="hsl(115, 75%, 70%)" opacity="0.81"></circle><circle r="9.5" cx="160" cy="710" fill="hsl(210, 75%, 70%)" opacity="0.87"></circle><circle r="10" cx="422" cy="63" fill="hsl(168, 75%, 70%)" opacity="0.93"></circle><circle r="5.5" cx="247" cy="583" fill="hsl(103, 75%, 70%)" opacity="0.17"></circle><circle r="7.5" cx="372" cy="732" fill="hsl(72, 75%, 70%)" opacity="0.48"></circle><circle r="8.5" cx="594" cy="281" fill="hsl(183, 75%, 70%)" opacity="0.87"></circle><circle r="11.5" cx="680" cy="369" fill="hsl(199, 75%, 70%)" opacity="0.37"></circle><circle r="10" cx="523" cy="129" fill="hsl(160, 75%, 70%)" opacity="0.49"></circle><circle r="15.5" cx="216" cy="28" fill="hsl(282, 75%, 70%)" opacity="0.63"></circle><circle r="6.5" cx="235" cy="268" fill="hsl(115, 75%, 70%)" opacity="0.99"></circle><circle r="8.5" cx="209" cy="189" fill="hsl(144, 75%, 70%)" opacity="0.38"></circle><circle r="7" cx="162" cy="268" fill="hsl(210, 75%, 70%)" opacity="0.23"></circle><circle r="14" cx="349" cy="26" fill="hsl(227, 75%, 70%)" opacity="0.72"></circle><circle r="7.5" cx="416" cy="272" fill="hsl(91, 75%, 70%)" opacity="0.25"></circle><circle r="12" cx="714" cy="237" fill="hsl(201, 75%, 70%)" opacity="0.20"></circle><circle r="7" cx="551" cy="227" fill="hsl(168, 75%, 70%)" opacity="0.11"></circle><circle r="6.5" cx="382" cy="773" fill="hsl(76, 75%, 70%)" opacity="0.47"></circle><circle r="13" cx="629" cy="764" fill="hsl(192, 75%, 70%)" opacity="0.66"></circle><circle r="9.5" cx="176" cy="540" fill="hsl(177, 75%, 70%)" opacity="0.34"></circle><circle r="6.5" cx="302" cy="195" fill="hsl(68, 75%, 70%)" opacity="0.31"></circle><circle r="11.5" cx="486" cy="623" fill="hsl(126, 75%, 70%)" opacity="0.47"></circle><circle r="11" cx="242" cy="72" fill="hsl(234, 75%, 70%)" opacity="0.49"></circle><circle r="8.5" cx="518" cy="29" fill="hsl(135, 75%, 70%)" opacity="0.94"></circle><circle r="10.5" cx="107" cy="766" fill="hsl(267, 75%, 70%)" opacity="0.17"></circle><circle r="11" cx="187" cy="156" fill="hsl(215, 75%, 70%)" opacity="0.74"></circle><circle r="17" cx="774" cy="84" fill="hsl(297, 75%, 70%)" opacity="0.59"></circle><circle r="10.5" cx="285" cy="470" fill="hsl(76, 75%, 70%)" opacity="0.18"></circle><circle r="11" cx="776" cy="753" fill="hsl(202, 75%, 70%)" opacity="0.73"></circle><circle r="10.5" cx="783" cy="26" fill="hsl(288, 75%, 70%)" opacity="0.74"></circle><circle r="3.5" cx="253" cy="225" fill="hsl(92, 75%, 70%)" opacity="0.80"></circle><circle r="14.5" cx="51" cy="426" fill="hsl(302, 75%, 70%)" opacity="0.70"></circle><circle r="15" cx="88" cy="59" fill="hsl(328, 75%, 70%)" opacity="0.30"></circle><circle r="8.5" cx="431" cy="453" fill="hsl(97, 75%, 70%)" opacity="0.68"></circle><circle r="9" cx="761" cy="564" fill="hsl(202, 75%, 70%)" opacity="0.85"></circle><circle r="3.5" cx="502" cy="499" fill="hsl(141, 75%, 70%)" opacity="0.98"></circle><circle r="5.5" cx="386" cy="628" fill="hsl(76, 75%, 70%)" opacity="0.56"></circle><circle r="6.5" cx="9" cy="280" fill="hsl(308, 75%, 70%)" opacity="0.22"></circle><circle r="7" cx="720" cy="296" fill="hsl(201, 75%, 70%)" opacity="0.78"></circle><circle r="5" cx="328" cy="718" fill="hsl(66, 75%, 70%)" opacity="0.93"></circle><circle r="10.5" cx="723" cy="349" fill="hsl(201, 75%, 70%)" opacity="0.62"></circle><circle r="8" cx="785" cy="205" fill="hsl(202, 75%, 70%)" opacity="0.53"></circle><circle r="7" cx="270" cy="614" fill="hsl(83, 75%, 70%)" opacity="0.27"></circle><circle r="9" cx="164" cy="127" fill="hsl(261, 75%, 70%)" opacity="0.78"></circle><circle r="8.5" cx="677" cy="574" fill="hsl(199, 75%, 70%)" opacity="0.23"></circle><circle r="11" cx="742" cy="466" fill="hsl(202, 75%, 70%)" opacity="0.10"></circle><circle r="10.5" cx="744" cy="677" fill="hsl(202, 75%, 70%)" opacity="0.16"></circle><circle r="9" cx="176" cy="675" fill="hsl(177, 75%, 70%)" opacity="0.54"></circle><circle r="11.5" cx="181" cy="67" fill="hsl(295, 75%, 70%)" opacity="0.61"></circle><circle r="5.5" cx="269" cy="560" fill="hsl(83, 75%, 70%)" opacity="0.74"></circle><circle r="7" cx="223" cy="546" fill="hsl(129, 75%, 70%)" opacity="0.56"></circle><circle r="11.5" cx="443" cy="365" fill="hsl(104, 75%, 70%)" opacity="0.14"></circle><circle r="7.5" cx="198" cy="785" fill="hsl(160, 75%, 70%)" opacity="0.43"></circle><circle r="9.5" cx="707" cy="468" fill="hsl(200, 75%, 70%)" opacity="0.28"></circle><circle r="8" cx="692" cy="708" fill="hsl(200, 75%, 70%)" opacity="0.43"></circle><circle r="8.5" cx="705" cy="624" fill="hsl(200, 75%, 70%)" opacity="0.42"></circle><circle r="12.5" cx="729" cy="731" fill="hsl(202, 75%, 70%)" opacity="0.26"></circle><circle r="9" cx="206" cy="308" fill="hsl(144, 75%, 70%)" opacity="0.19"></circle><circle r="7" cx="452" cy="146" fill="hsl(126, 75%, 70%)" opacity="0.52"></circle><circle r="10.5" cx="555" cy="91" fill="hsl(175, 75%, 70%)" opacity="0.26"></circle><circle r="7.5" cx="734" cy="526" fill="hsl(202, 75%, 70%)" opacity="0.16"></circle><circle r="9" cx="55" cy="752" fill="hsl(302, 75%, 70%)" opacity="0.27"></circle><circle r="8" cx="706" cy="675" fill="hsl(200, 75%, 70%)" opacity="0.64"></circle><circle r="7" cx="349" cy="650" fill="hsl(67, 75%, 70%)" opacity="0.24"></circle><circle r="8" cx="674" cy="327" fill="hsl(197, 75%, 70%)" opacity="0.48"></circle><circle r="9.5" cx="241" cy="334" fill="hsl(103, 75%, 70%)" opacity="0.24"></circle><circle r="14.5" cx="777" cy="139" fill="hsl(263, 75%, 70%)" opacity="0.23"></circle><circle r="7.5" cx="596" cy="87" fill="hsl(194, 75%, 70%)" opacity="0.28"></circle><circle r="14" cx="101" cy="411" fill="hsl(267, 75%, 70%)" opacity="0.23"></circle><circle r="7.5" cx="453" cy="299" fill="hsl(111, 75%, 70%)" opacity="0.90"></circle><circle r="13" cx="593" cy="698" fill="hsl(183, 75%, 70%)" opacity="0.38"></circle><circle r="7.5" cx="495" cy="570" fill="hsl(134, 75%, 70%)" opacity="0.41"></circle><circle r="8.5" cx="744" cy="280" fill="hsl(202, 75%, 70%)" opacity="0.66"></circle><circle r="11.5" cx="541" cy="723" fill="hsl(162, 75%, 70%)" opacity="0.30"></circle><circle r="8" cx="520" cy="549" fill="hsl(148, 75%, 70%)" opacity="0.65"></circle><circle r="9.5" cx="522" cy="444" fill="hsl(148, 75%, 70%)" opacity="0.52"></circle><circle r="9" cx="584" cy="216" fill="hsl(178, 75%, 70%)" opacity="0.87"></circle><circle r="8" cx="334" cy="377" fill="hsl(66, 75%, 70%)" opacity="0.85"></circle><circle r="9.5" cx="598" cy="337" fill="hsl(183, 75%, 70%)" opacity="0.53"></circle><circle r="9" cx="536" cy="397" fill="hsl(155, 75%, 70%)" opacity="0.10"></circle><circle r="13.5" cx="303" cy="37" fill="hsl(239, 75%, 70%)" opacity="0.11"></circle><circle r="18.5" cx="62" cy="121" fill="hsl(331, 75%, 70%)" opacity="0.65"></circle><circle r="8" cx="554" cy="466" fill="hsl(168, 75%, 70%)" opacity="0.39"></circle><circle r="8.5" cx="43" cy="364" fill="hsl(306, 75%, 70%)" opacity="0.57"></circle><circle r="7.5" cx="116" cy="711" fill="hsl(254, 75%, 70%)" opacity="0.68"></circle><circle r="4" cx="385" cy="600" fill="hsl(76, 75%, 70%)" opacity="0.53"></circle><circle r="12" cx="500" cy="364" fill="hsl(134, 75%, 70%)" opacity="0.72"></circle><circle r="7.5" cx="461" cy="564" fill="hsl(111, 75%, 70%)" opacity="0.83"></circle><circle r="5" cx="790" cy="384" fill="hsl(202, 75%, 70%)" opacity="0.71"></circle><circle r="9.5" cx="747" cy="631" fill="hsl(202, 75%, 70%)" opacity="0.72"></circle><circle r="9" cx="783" cy="285" fill="hsl(202, 75%, 70%)" opacity="0.43"></circle><circle r="9" cx="383" cy="356" fill="hsl(76, 75%, 70%)" opacity="0.94"></circle><circle r="7.5" cx="770" cy="400" fill="hsl(202, 75%, 70%)" opacity="0.34"></circle><circle r="6.5" cx="378" cy="547" fill="hsl(76, 75%, 70%)" opacity="0.92"></circle><circle r="9.5" cx="758" cy="249" fill="hsl(202, 75%, 70%)" opacity="0.44"></circle><circle r="11" cx="626" cy="244" fill="hsl(192, 75%, 70%)" opacity="0.97"></circle><circle r="9" cx="170" cy="349" fill="hsl(193, 75%, 70%)" opacity="0.35"></circle><circle r="7" cx="103" cy="691" fill="hsl(267, 75%, 70%)" opacity="1.00"></circle><circle r="6.5" cx="374" cy="232" fill="hsl(72, 75%, 70%)" opacity="0.35"></circle><circle r="8.5" cx="174" cy="501" fill="hsl(193, 75%, 70%)" opacity="0.73"></circle><circle r="5" cx="547" cy="202" fill="hsl(162, 75%, 70%)" opacity="0.55"></circle><circle r="11.5" cx="641" cy="705" fill="hsl(194, 75%, 70%)" opacity="0.62"></circle><circle r="6" cx="401" cy="669" fill="hsl(85, 75%, 70%)" opacity="0.28"></circle><circle r="7" cx="292" cy="694" fill="hsl(71, 75%, 70%)" opacity="0.54"></circle><circle r="8.5" cx="413" cy="130" fill="hsl(120, 75%, 70%)" opacity="0.63"></circle><circle r="5" cx="396" cy="576" fill="hsl(80, 75%, 70%)" opacity="0.69"></circle><circle r="12" cx="662" cy="221" fill="hsl(196, 75%, 70%)" opacity="0.43"></circle><circle r="12" cx="613" cy="183" fill="hsl(199, 75%, 70%)" opacity="0.16"></circle><circle r="9" cx="334" cy="133" fill="hsl(106, 75%, 70%)" opacity="0.58"></circle><circle r="15.5" cx="20" cy="762" fill="hsl(309, 75%, 70%)" opacity="0.41"></circle><circle r="7" cx="401" cy="310" fill="hsl(85, 75%, 70%)" opacity="0.77"></circle><circle r="17.5" cx="36" cy="74" fill="hsl(290, 75%, 70%)" opacity="0.88"></circle><circle r="8" cx="125" cy="379" fill="hsl(240, 75%, 70%)" opacity="0.90"></circle><circle r="10.5" cx="531" cy="305" fill="hsl(155, 75%, 70%)" opacity="0.14"></circle><circle r="9" cx="614" cy="595" fill="hsl(190, 75%, 70%)" opacity="0.98"></circle><circle r="6.5" cx="508" cy="477" fill="hsl(141, 75%, 70%)" opacity="0.25"></circle><circle r="12" cx="43" cy="22" fill="hsl(248, 75%, 70%)" opacity="0.82"></circle><circle r="12.5" cx="142" cy="573" fill="hsl(225, 75%, 70%)" opacity="0.44"></circle><circle r="7.5" cx="249" cy="720" fill="hsl(103, 75%, 70%)" opacity="0.55"></circle><circle r="7" cx="304" cy="548" fill="hsl(68, 75%, 70%)" opacity="0.68"></circle><circle r="7.5" cx="715" cy="13" fill="hsl(263, 75%, 70%)" opacity="0.96"></circle><circle r="6.5" cx="386" cy="496" fill="hsl(76, 75%, 70%)" opacity="0.44"></circle><circle r="9.5" cx="760" cy="176" fill="hsl(219, 75%, 70%)" opacity="0.34"></circle><circle r="8" cx="54" cy="387" fill="hsl(302, 75%, 70%)" opacity="0.33"></circle><circle r="7" cx="181" cy="757" fill="hsl(177, 75%, 70%)" opacity="0.65"></circle><circle r="3.5" cx="237" cy="235" fill="hsl(115, 75%, 70%)" opacity="0.92"></circle><circle r="17.5" cx="23" cy="211" fill="hsl(309, 75%, 70%)" opacity="0.91"></circle><circle r="8.5" cx="554" cy="618" fill="hsl(168, 75%, 70%)" opacity="0.54"></circle><circle r="7" cx="284" cy="738" fill="hsl(76, 75%, 70%)" opacity="0.83"></circle><circle r="8.5" cx="127" cy="202" fill="hsl(240, 75%, 70%)" opacity="0.13"></circle><circle r="7.5" cx="602" cy="405" fill="hsl(186, 75%, 70%)" opacity="0.12"></circle><circle r="12.5" cx="14" cy="408" fill="hsl(309, 75%, 70%)" opacity="0.21"></circle><circle r="8.5" cx="498" cy="265" fill="hsl(134, 75%, 70%)" opacity="0.90"></circle><circle r="11.5" cx="778" cy="606" fill="hsl(202, 75%, 70%)" opacity="0.89"></circle><circle r="6.5" cx="521" cy="204" fill="hsl(148, 75%, 70%)" opacity="0.22"></circle><circle r="9" cx="571" cy="316" fill="hsl(173, 75%, 70%)" opacity="0.43"></circle><circle r="6" cx="416" cy="543" fill="hsl(91, 75%, 70%)" opacity="0.22"></circle><circle r="9.5" cx="175" cy="605" fill="hsl(193, 75%, 70%)" opacity="0.96"></circle><circle r="9.5" cx="163" cy="397" fill="hsl(193, 75%, 70%)" opacity="0.53"></circle><circle r="10.5" cx="679" cy="740" fill="hsl(199, 75%, 70%)" opacity="0.46"></circle><circle r="6" cx="264" cy="201" fill="hsl(83, 75%, 70%)" opacity="0.13"></circle><circle r="7.5" cx="429" cy="186" fill="hsl(100, 75%, 70%)" opacity="0.53"></circle><circle r="11.5" cx="646" cy="551" fill="hsl(194, 75%, 70%)" opacity="0.23"></circle><circle r="14" cx="100" cy="159" fill="hsl(311, 75%, 70%)" opacity="0.66"></circle><circle r="6" cx="596" cy="461" fill="hsl(183, 75%, 70%)" opacity="0.82"></circle><circle r="9" cx="782" cy="325" fill="hsl(202, 75%, 70%)" opacity="0.65"></circle><circle r="10.5" cx="555" cy="357" fill="hsl(168, 75%, 70%)" opacity="0.39"></circle><circle r="11" cx="207" cy="373" fill="hsl(144, 75%, 70%)" opacity="0.42"></circle><circle r="8" cx="521" cy="170" fill="hsl(154, 75%, 70%)" opacity="0.98"></circle><circle r="10.5" cx="780" cy="696" fill="hsl(202, 75%, 70%)" opacity="0.72"></circle><circle r="8" cx="530" cy="249" fill="hsl(155, 75%, 70%)" opacity="1.00"></circle><circle r="6" cx="229" cy="608" fill="hsl(115, 75%, 70%)" opacity="0.94"></circle><circle r="20" cx="718" cy="126" fill="hsl(269, 75%, 70%)" opacity="0.86"></circle><circle r="7.5" cx="385" cy="155" fill="hsl(91, 75%, 70%)" opacity="0.83"></circle><circle r="10.5" cx="621" cy="63" fill="hsl(207, 75%, 70%)" opacity="0.79"></circle><circle r="12" cx="133" cy="659" fill="hsl(240, 75%, 70%)" opacity="0.86"></circle><circle r="9.5" cx="672" cy="782" fill="hsl(197, 75%, 70%)" opacity="0.10"></circle><circle r="8" cx="560" cy="422" fill="hsl(168, 75%, 70%)" opacity="0.44"></circle><circle r="12.5" cx="81" cy="197" fill="hsl(288, 75%, 70%)" opacity="0.47"></circle><circle r="11" cx="61" cy="338" fill="hsl(302, 75%, 70%)" opacity="0.32"></circle><circle r="6.5" cx="304" cy="598" fill="hsl(68, 75%, 70%)" opacity="0.58"></circle><circle r="12" cx="212" cy="477" fill="hsl(144, 75%, 70%)" opacity="0.60"></circle><circle r="12" cx="118" cy="89" fill="hsl(335, 75%, 70%)" opacity="0.83"></circle><circle r="6" cx="250" cy="655" fill="hsl(92, 75%, 70%)" opacity="0.54"></circle><circle r="10" cx="480" cy="61" fill="hsl(153, 75%, 70%)" opacity="0.18"></circle><circle r="7.5" cx="351" cy="282" fill="hsl(69, 75%, 70%)" opacity="0.61"></circle><circle r="7" cx="768" cy="524" fill="hsl(202, 75%, 70%)" opacity="0.51"></circle><circle r="14" cx="43" cy="169" fill="hsl(315, 75%, 70%)" opacity="0.43"></circle><circle r="6" cx="753" cy="309" fill="hsl(202, 75%, 70%)" opacity="0.44"></circle><circle r="15.5" cx="21" cy="685" fill="hsl(309, 75%, 70%)" opacity="0.74"></circle><circle r="6.5" cx="526" cy="517" fill="hsl(155, 75%, 70%)" opacity="0.59"></circle><circle r="9.5" cx="200" cy="728" fill="hsl(160, 75%, 70%)" opacity="0.68"></circle><circle r="7" cx="158" cy="204" fill="hsl(210, 75%, 70%)" opacity="0.61"></circle><circle r="4.5" cx="552" cy="181" fill="hsl(172, 75%, 70%)" opacity="0.80"></circle><circle r="9.5" cx="131" cy="615" fill="hsl(240, 75%, 70%)" opacity="0.98"></circle><circle r="6" cx="298" cy="776" fill="hsl(71, 75%, 70%)" opacity="0.66"></circle><circle r="7" cx="574" cy="175" fill="hsl(179, 75%, 70%)" opacity="0.41"></circle><circle r="10.5" cx="581" cy="653" fill="hsl(178, 75%, 70%)" opacity="0.41"></circle><circle r="5" cx="58" cy="779" fill="hsl(302, 75%, 70%)" opacity="0.70"></circle><circle r="12.5" cx="671" cy="74" fill="hsl(252, 75%, 70%)" opacity="0.97"></circle><circle r="10.5" cx="442" cy="97" fill="hsl(149, 75%, 70%)" opacity="0.68"></circle><circle r="9" cx="143" cy="320" fill="hsl(225, 75%, 70%)" opacity="0.47"></circle><circle r="13.5" cx="138" cy="50" fill="hsl(324, 75%, 70%)" opacity="0.71"></circle><circle r="8" cx="202" cy="91" fill="hsl(248, 75%, 70%)" opacity="0.72"></circle><circle r="9" cx="487" cy="312" fill="hsl(126, 75%, 70%)" opacity="0.23"></circle><circle r="9" cx="710" cy="589" fill="hsl(200, 75%, 70%)" opacity="0.63"></circle><circle r="5.5" cx="418" cy="750" fill="hsl(91, 75%, 70%)" opacity="0.82"></circle><circle r="9.5" cx="663" cy="607" fill="hsl(197, 75%, 70%)" opacity="0.76"></circle><circle r="9" cx="91" cy="732" fill="hsl(278, 75%, 70%)" opacity="0.98"></circle><circle r="9" cx="354" cy="464" fill="hsl(69, 75%, 70%)" opacity="0.87"></circle><circle r="7" cx="11" cy="31" fill="hsl(215, 75%, 70%)" opacity="0.89"></circle><circle r="5.5" cx="315" cy="635" fill="hsl(66, 75%, 70%)" opacity="0.98"></circle><circle r="9" cx="637" cy="343" fill="hsl(192, 75%, 70%)" opacity="0.34"></circle><circle r="6" cx="447" cy="669" fill="hsl(104, 75%, 70%)" opacity="0.57"></circle><circle r="8.5" cx="535" cy="587" fill="hsl(155, 75%, 70%)" opacity="0.50"></circle><circle r="6.5" cx="284" cy="654" fill="hsl(76, 75%, 70%)" opacity="0.94"></circle><circle r="8.5" cx="483" cy="415" fill="hsl(126, 75%, 70%)" opacity="0.72"></circle><circle r="11.5" cx="584" cy="759" fill="hsl(178, 75%, 70%)" opacity="0.19"></circle><circle r="4.5" cx="418" cy="788" fill="hsl(91, 75%, 70%)" opacity="0.55"></circle><circle r="8.5" cx="166" cy="99" fill="hsl(294, 75%, 70%)" opacity="0.53"></circle><circle r="6.5" cx="299" cy="238" fill="hsl(71, 75%, 70%)" opacity="0.22"></circle><circle r="10" cx="436" cy="602" fill="hsl(97, 75%, 70%)" opacity="0.55"></circle><circle r="15.5" cx="696" cy="182" fill="hsl(214, 75%, 70%)" opacity="0.85"></circle><circle r="6.5" cx="474" cy="727" fill="hsl(119, 75%, 70%)" opacity="0.21"></circle><circle r="6" cx="443" cy="528" fill="hsl(104, 75%, 70%)" opacity="0.64"></circle><circle r="9.5" cx="488" cy="105" fill="hsl(151, 75%, 70%)" opacity="0.40"></circle><circle r="8" cx="651" cy="305" fill="hsl(196, 75%, 70%)" opacity="0.40"></circle><circle r="13" cx="117" cy="125" fill="hsl(325, 75%, 70%)" opacity="0.41"></circle><circle r="14" cx="732" cy="67" fill="hsl(291, 75%, 70%)" opacity="0.12"></circle><circle r="7.5" cx="79" cy="756" fill="hsl(288, 75%, 70%)" opacity="0.62"></circle><circle r="12.5" cx="278" cy="117" fill="hsl(138, 75%, 70%)" opacity="0.29"></circle><circle r="12.5" cx="168" cy="440" fill="hsl(193, 75%, 70%)" opacity="0.71"></circle><circle r="10" cx="781" cy="493" fill="hsl(202, 75%, 70%)" opacity="0.79"></circle><circle r="6" cx="788" cy="242" fill="hsl(202, 75%, 70%)" opacity="0.24"></circle><circle r="5.5" cx="342" cy="173" fill="hsl(75, 75%, 70%)" opacity="0.81"></circle><circle r="8.5" cx="767" cy="439" fill="hsl(202, 75%, 70%)" opacity="0.79"></circle><circle r="11" cx="398" cy="411" fill="hsl(80, 75%, 70%)" opacity="0.64"></circle><circle r="10" cx="561" cy="535" fill="hsl(168, 75%, 70%)" opacity="0.74"></circle><circle r="8.5" cx="485" cy="671" fill="hsl(126, 75%, 70%)" opacity="0.88"></circle><circle r="8" cx="622" cy="298" fill="hsl(190, 75%, 70%)" opacity="0.81"></circle><circle r="8.5" cx="504" cy="761" fill="hsl(141, 75%, 70%)" opacity="0.89"></circle><circle r="10" cx="593" cy="126" fill="hsl(206, 75%, 70%)" opacity="0.26"></circle><circle r="4.5" cx="340" cy="203" fill="hsl(67, 75%, 70%)" opacity="0.39"></circle><circle r="5.5" cx="328" cy="682" fill="hsl(66, 75%, 70%)" opacity="0.25"></circle><circle r="6.5" cx="213" cy="240" fill="hsl(129, 75%, 70%)" opacity="0.38"></circle><circle r="5.5" cx="450" cy="498" fill="hsl(111, 75%, 70%)" opacity="0.50"></circle><circle r="6.5" cx="374" cy="691" fill="hsl(72, 75%, 70%)" opacity="0.79"></circle><circle r="4.5" cx="792" cy="437" fill="hsl(202, 75%, 70%)" opacity="0.73"></circle><circle r="6.5" cx="308" cy="292" fill="hsl(68, 75%, 70%)" opacity="0.97"></circle><circle r="5.5" cx="209" cy="623" fill="hsl(144, 75%, 70%)" opacity="0.34"></circle><circle r="5" cx="327" cy="747" fill="hsl(66, 75%, 70%)" opacity="0.82"></circle><circle r="12" cx="242" cy="416" fill="hsl(103, 75%, 70%)" opacity="0.84"></circle><circle r="9" cx="685" cy="527" fill="hsl(199, 75%, 70%)" opacity="0.13"></circle><circle r="6" cx="672" cy="688" fill="hsl(197, 75%, 70%)" opacity="0.19"></circle><circle r="10" cx="457" cy="242" fill="hsl(111, 75%, 70%)" opacity="0.58"></circle><circle r="15" cx="675" cy="419" fill="hsl(197, 75%, 70%)" opacity="0.71"></circle><circle r="10" cx="611" cy="22" fill="hsl(153, 75%, 70%)" opacity="0.81"></circle><circle r="12" cx="719" cy="776" fill="hsl(201, 75%, 70%)" opacity="0.48"></circle><circle r="7" cx="431" cy="721" fill="hsl(97, 75%, 70%)" opacity="0.29"></circle><circle r="8" cx="564" cy="146" fill="hsl(189, 75%, 70%)" opacity="0.87"></circle></svg>