<svg xmlns="http://www.w3.org/2000/svg" version="1.1" xmlns:xlink="http://www.w3.org/1999/xlink" xmlns:svgjs="http://svgjs.dev/svgjs" viewBox="0 0 800 800"><defs><radialGradient id="ccclaymoji-grad-dark" r="93%" cx="20%" cy="20%">
      <stop offset="70%" stop-color="hsl(30, 100%, 40%)" stop-opacity="0"></stop>
      <stop offset="97%" stop-color="#953900" stop-opacity="1"></stop>
    </radialGradient><radialGradient id="ccclaymoji-grad-light" r="65%" cx="28%" cy="20%">
    <stop offset="0%" stop-color="#ff953b" stop-opacity="0.75"></stop>
    <stop offset="100%" stop-color="hsl(30, 100%, 40%)" stop-opacity="0"></stop>
  </radialGradient><filter id="ccclaymoji-blur" x="-100%" y="-100%" width="400%" height="400%" filterUnits="objectBoundingBox" primitiveUnits="userSpaceOnUse" color-interpolation-filters="sRGB">
	<feGaussianBlur stdDeviation="30" x="0%" y="0%" width="100%" height="100%" in="SourceGraphic" edgeMode="none" result="blur"></feGaussianBlur></filter><filter id="inner-blur" x="-100%" y="-100%" width="400%" height="400%" filterUnits="objectBoundingBox" primitiveUnits="userSpaceOnUse" color-interpolation-filters="sRGB">
	<feGaussianBlur stdDeviation="2" x="0%" y="0%" width="100%" height="100%" in="SourceGraphic" edgeMode="none" result="blur"></feGaussianBlur></filter><filter id="eye-shadow" x="-100%" y="-100%" width="400%" height="400%" filterUnits="objectBoundingBox" primitiveUnits="userSpaceOnUse" color-interpolation-filters="sRGB">
	<feDropShadow stdDeviation="10" dx="10" dy="10" flood-color="#000000" flood-opacity="0.2" x="0%" y="0%" width="100%" height="100%" result="dropShadow"></feDropShadow>
</filter><linearGradient id="eye-light" x1="50%" y1="0%" x2="50%" y2="100%">
      <stop offset="0%" stop-color="#555555" stop-opacity="1"></stop>
      <stop offset="100%" stop-color="black" stop-opacity="0"></stop>
    </linearGradient><linearGradient id="mouth-light" x1="50%" y1="0%" x2="50%" y2="100%">
    <stop offset="0%" stop-color="#ff9667" stop-opacity="1"></stop>
    <stop offset="100%" stop-color="hsl(3, 100%, 51%)" stop-opacity="0"></stop>
  </linearGradient><filter id="mouth-shadow" x="-100%" y="-100%" width="400%" height="400%" filterUnits="objectBoundingBox" primitiveUnits="userSpaceOnUse" color-interpolation-filters="sRGB">
	<feDropShadow stdDeviation="10" dx="10" dy="10" flood-color="#c20000" flood-opacity="0.2" x="0%" y="0%" width="100%" height="100%" result="dropShadow"></feDropShadow>
</filter></defs><g stroke-linecap="round" transform="rotate(4, 400, 400)"><path d="M594.5 449.9999982314611C594.5 569.0014941883344 519.0014959568733 665.4703486357738 400 665.4703486357738C280.99902830188677 665.4703486357738 205.5 569.0014941883344 205.5 449.9999982314611C205.5 330.9990265333479 280.99902830188677 234.52964782714844 400 234.52964782714844C519.0014959568733 234.52964782714844 594.5 330.9990265333479 594.5 449.9999982314611Z " fill="#953900" opacity="0.24" filter="url(#ccclaymoji-blur)"></path><path d="M594.5 400.00000526015236C594.5 525.7822132373603 525.7822079772079 583.4173841775313 400 583.4173841775313C274.21834615384614 583.4173841775313 205.5 525.7822132373603 205.5 400.00000526015236C205.5 274.2183514139985 274.21834615384614 216.58262634277344 400 216.58262634277344C525.7822079772079 216.58262634277344 594.5 274.2183514139985 594.5 400.00000526015236Z " fill="hsl(30, 100%, 40%)"></path><path d="M594.5 400.00000526015236C594.5 525.7822132373603 525.7822079772079 583.4173841775313 400 583.4173841775313C274.21834615384614 583.4173841775313 205.5 525.7822132373603 205.5 400.00000526015236C205.5 274.2183514139985 274.21834615384614 216.58262634277344 400 216.58262634277344C525.7822079772079 216.58262634277344 594.5 274.2183514139985 594.5 400.00000526015236Z " fill="url(#ccclaymoji-grad-dark)"></path><path d="M594.5 400.00000526015236C594.5 525.7822132373603 525.7822079772079 583.4173841775313 400 583.4173841775313C274.21834615384614 583.4173841775313 205.5 525.7822132373603 205.5 400.00000526015236C205.5 274.2183514139985 274.21834615384614 216.58262634277344 400 216.58262634277344C525.7822079772079 216.58262634277344 594.5 274.2183514139985 594.5 400.00000526015236Z " fill="url(#ccclaymoji-grad-light)"></path><path d="M317.5 384.5Q361.5 346.5 382.5 384.5 " stroke-width="15" stroke="black" fill="none" filter="url(#eye-shadow)"></path><path d="M317.5 384.5Q361.5 346.5 382.5 384.5 " stroke-width="5" stroke="url(#eye-light)" fill="none" filter="url(#inner-blur)"></path><path d="M434.5 386.25Q484.5 357.25 505.5 386.25 " stroke-width="15" stroke="black" fill="none" filter="url(#eye-shadow)"></path><path d="M434.5 386.25Q484.5 357.25 505.5 386.25 " stroke-width="5" stroke="url(#eye-light)" fill="none" filter="url(#inner-blur)"></path><path d="M364.9476776123047 497.5Q447.9476776123047 551.5 444.9476776123047 497.5 " stroke-width="15" stroke="hsl(3, 100%, 51%)" fill="none" filter="url(#mouth-shadow)" transform="rotate(2, 400, 400)"></path><path d="M364.9476776123047 497.5Q447.9476776123047 551.5 444.9476776123047 497.5 " stroke-width="5" stroke="url(#mouth-light)" fill="none" filter="url(#inner-blur)" transform="rotate(2, 400, 400)"></path></g></svg>