<svg xmlns="http://www.w3.org/2000/svg" version="1.1" xmlns:xlink="http://www.w3.org/1999/xlink" xmlns:svgjs="http://svgjs.dev/svgjs" viewBox="0 0 2400 800"><defs><linearGradient x1="50%" y1="0%" x2="50%" y2="100%" id="sssurf-grad"><stop stop-color="hsl(208, 77%, 50%)" stop-opacity="1" offset="0%"></stop><stop stop-color="hsl(208, 74%, 93%)" stop-opacity="1" offset="100%"></stop></linearGradient></defs><g fill="url(#sssurf-grad)" transform="matrix(1,0,0,1,9.9305419921875,193.50030517578125)"><path d="M-10,10C27.797619047619044,15.416666666666666,97.91666666666666,43.708333333333336,171.42857142857142,36C244.94047619047618,28.291666666666664,271.42857142857144,-26.791666666666668,342.85714285714283,-27C414.2857142857142,-27.208333333333332,442.8571428571428,31.875,514.2857142857142,35C585.7142857142857,38.125,614.2857142857142,-9.291666666666668,685.7142857142857,-12C757.1428571428571,-14.708333333333332,785.7142857142857,21.166666666666668,857.1428571428571,22C928.5714285714286,22.833333333333332,957.142857142857,-12.583333333333332,1028.5714285714284,-8C1099.9999999999998,-3.416666666666667,1128.5714285714287,44,1200,44C1271.4285714285713,44,1300,-6.333333333333334,1371.4285714285713,-8C1442.8571428571427,-9.666666666666666,1471.4285714285713,34.541666666666664,1542.8571428571427,36C1614.285714285714,37.458333333333336,1642.857142857143,-1.4166666666666665,1714.2857142857142,-1C1785.7142857142856,-0.5833333333333334,1814.2857142857142,35.5,1885.7142857142856,38C1957.1428571428569,40.5,1985.7142857142856,10.583333333333334,2057.142857142857,11C2128.5714285714284,11.416666666666666,2157.142857142857,41.666666666666664,2228.5714285714284,40C2300,38.333333333333336,2312.2023809523807,-72,2400,3C2487.7976190476193,78,3254.1666666666665,213.125,2650,400C2045.8333333333335,586.875,156.25,795.8333333333334,-500,900" transform="matrix(1,0,0,1,0,34)" opacity="0.05"></path><path d="M-10,10C27.797619047619044,15.416666666666666,97.91666666666666,43.708333333333336,171.42857142857142,36C244.94047619047618,28.291666666666664,271.42857142857144,-26.791666666666668,342.85714285714283,-27C414.2857142857142,-27.208333333333332,442.8571428571428,31.875,514.2857142857142,35C585.7142857142857,38.125,614.2857142857142,-9.291666666666668,685.7142857142857,-12C757.1428571428571,-14.708333333333332,785.7142857142857,21.166666666666668,857.1428571428571,22C928.5714285714286,22.833333333333332,957.142857142857,-12.583333333333332,1028.5714285714284,-8C1099.9999999999998,-3.416666666666667,1128.5714285714287,44,1200,44C1271.4285714285713,44,1300,-6.333333333333334,1371.4285714285713,-8C1442.8571428571427,-9.666666666666666,1471.4285714285713,34.541666666666664,1542.8571428571427,36C1614.285714285714,37.458333333333336,1642.857142857143,-1.4166666666666665,1714.2857142857142,-1C1785.7142857142856,-0.5833333333333334,1814.2857142857142,35.5,1885.7142857142856,38C1957.1428571428569,40.5,1985.7142857142856,10.583333333333334,2057.142857142857,11C2128.5714285714284,11.416666666666666,2157.142857142857,41.666666666666664,2228.5714285714284,40C2300,38.333333333333336,2312.2023809523807,-72,2400,3C2487.7976190476193,78,3254.1666666666665,213.125,2650,400C2045.8333333333335,586.875,156.25,795.8333333333334,-500,900" transform="matrix(1,0,0,1,0,68)" opacity="0.17"></path><path d="M-10,10C27.797619047619044,15.416666666666666,97.91666666666666,43.708333333333336,171.42857142857142,36C244.94047619047618,28.291666666666664,271.42857142857144,-26.791666666666668,342.85714285714283,-27C414.2857142857142,-27.208333333333332,442.8571428571428,31.875,514.2857142857142,35C585.7142857142857,38.125,614.2857142857142,-9.291666666666668,685.7142857142857,-12C757.1428571428571,-14.708333333333332,785.7142857142857,21.166666666666668,857.1428571428571,22C928.5714285714286,22.833333333333332,957.142857142857,-12.583333333333332,1028.5714285714284,-8C1099.9999999999998,-3.416666666666667,1128.5714285714287,44,1200,44C1271.4285714285713,44,1300,-6.333333333333334,1371.4285714285713,-8C1442.8571428571427,-9.666666666666666,1471.4285714285713,34.541666666666664,1542.8571428571427,36C1614.285714285714,37.458333333333336,1642.857142857143,-1.4166666666666665,1714.2857142857142,-1C1785.7142857142856,-0.5833333333333334,1814.2857142857142,35.5,1885.7142857142856,38C1957.1428571428569,40.5,1985.7142857142856,10.583333333333334,2057.142857142857,11C2128.5714285714284,11.416666666666666,2157.142857142857,41.666666666666664,2228.5714285714284,40C2300,38.333333333333336,2312.2023809523807,-72,2400,3C2487.7976190476193,78,3254.1666666666665,213.125,2650,400C2045.8333333333335,586.875,156.25,795.8333333333334,-500,900" transform="matrix(1,0,0,1,0,102)" opacity="0.29"></path><path d="M-10,10C27.797619047619044,15.416666666666666,97.91666666666666,43.708333333333336,171.42857142857142,36C244.94047619047618,28.291666666666664,271.42857142857144,-26.791666666666668,342.85714285714283,-27C414.2857142857142,-27.208333333333332,442.8571428571428,31.875,514.2857142857142,35C585.7142857142857,38.125,614.2857142857142,-9.291666666666668,685.7142857142857,-12C757.1428571428571,-14.708333333333332,785.7142857142857,21.166666666666668,857.1428571428571,22C928.5714285714286,22.833333333333332,957.142857142857,-12.583333333333332,1028.5714285714284,-8C1099.9999999999998,-3.416666666666667,1128.5714285714287,44,1200,44C1271.4285714285713,44,1300,-6.333333333333334,1371.4285714285713,-8C1442.8571428571427,-9.666666666666666,1471.4285714285713,34.541666666666664,1542.8571428571427,36C1614.285714285714,37.458333333333336,1642.857142857143,-1.4166666666666665,1714.2857142857142,-1C1785.7142857142856,-0.5833333333333334,1814.2857142857142,35.5,1885.7142857142856,38C1957.1428571428569,40.5,1985.7142857142856,10.583333333333334,2057.142857142857,11C2128.5714285714284,11.416666666666666,2157.142857142857,41.666666666666664,2228.5714285714284,40C2300,38.333333333333336,2312.2023809523807,-72,2400,3C2487.7976190476193,78,3254.1666666666665,213.125,2650,400C2045.8333333333335,586.875,156.25,795.8333333333334,-500,900" transform="matrix(1,0,0,1,0,136)" opacity="0.41"></path><path d="M-10,10C27.797619047619044,15.416666666666666,97.91666666666666,43.708333333333336,171.42857142857142,36C244.94047619047618,28.291666666666664,271.42857142857144,-26.791666666666668,342.85714285714283,-27C414.2857142857142,-27.208333333333332,442.8571428571428,31.875,514.2857142857142,35C585.7142857142857,38.125,614.2857142857142,-9.291666666666668,685.7142857142857,-12C757.1428571428571,-14.708333333333332,785.7142857142857,21.166666666666668,857.1428571428571,22C928.5714285714286,22.833333333333332,957.142857142857,-12.583333333333332,1028.5714285714284,-8C1099.9999999999998,-3.416666666666667,1128.5714285714287,44,1200,44C1271.4285714285713,44,1300,-6.333333333333334,1371.4285714285713,-8C1442.8571428571427,-9.666666666666666,1471.4285714285713,34.541666666666664,1542.8571428571427,36C1614.285714285714,37.458333333333336,1642.857142857143,-1.4166666666666665,1714.2857142857142,-1C1785.7142857142856,-0.5833333333333334,1814.2857142857142,35.5,1885.7142857142856,38C1957.1428571428569,40.5,1985.7142857142856,10.583333333333334,2057.142857142857,11C2128.5714285714284,11.416666666666666,2157.142857142857,41.666666666666664,2228.5714285714284,40C2300,38.333333333333336,2312.2023809523807,-72,2400,3C2487.7976190476193,78,3254.1666666666665,213.125,2650,400C2045.8333333333335,586.875,156.25,795.8333333333334,-500,900" transform="matrix(1,0,0,1,0,170)" opacity="0.53"></path><path d="M-10,10C27.797619047619044,15.416666666666666,97.91666666666666,43.708333333333336,171.42857142857142,36C244.94047619047618,28.291666666666664,271.42857142857144,-26.791666666666668,342.85714285714283,-27C414.2857142857142,-27.208333333333332,442.8571428571428,31.875,514.2857142857142,35C585.7142857142857,38.125,614.2857142857142,-9.291666666666668,685.7142857142857,-12C757.1428571428571,-14.708333333333332,785.7142857142857,21.166666666666668,857.1428571428571,22C928.5714285714286,22.833333333333332,957.142857142857,-12.583333333333332,1028.5714285714284,-8C1099.9999999999998,-3.416666666666667,1128.5714285714287,44,1200,44C1271.4285714285713,44,1300,-6.333333333333334,1371.4285714285713,-8C1442.8571428571427,-9.666666666666666,1471.4285714285713,34.541666666666664,1542.8571428571427,36C1614.285714285714,37.458333333333336,1642.857142857143,-1.4166666666666665,1714.2857142857142,-1C1785.7142857142856,-0.5833333333333334,1814.2857142857142,35.5,1885.7142857142856,38C1957.1428571428569,40.5,1985.7142857142856,10.583333333333334,2057.142857142857,11C2128.5714285714284,11.416666666666666,2157.142857142857,41.666666666666664,2228.5714285714284,40C2300,38.333333333333336,2312.2023809523807,-72,2400,3C2487.7976190476193,78,3254.1666666666665,213.125,2650,400C2045.8333333333335,586.875,156.25,795.8333333333334,-500,900" transform="matrix(1,0,0,1,0,204)" opacity="0.64"></path><path d="M-10,10C27.797619047619044,15.416666666666666,97.91666666666666,43.708333333333336,171.42857142857142,36C244.94047619047618,28.291666666666664,271.42857142857144,-26.791666666666668,342.85714285714283,-27C414.2857142857142,-27.208333333333332,442.8571428571428,31.875,514.2857142857142,35C585.7142857142857,38.125,614.2857142857142,-9.291666666666668,685.7142857142857,-12C757.1428571428571,-14.708333333333332,785.7142857142857,21.166666666666668,857.1428571428571,22C928.5714285714286,22.833333333333332,957.142857142857,-12.583333333333332,1028.5714285714284,-8C1099.9999999999998,-3.416666666666667,1128.5714285714287,44,1200,44C1271.4285714285713,44,1300,-6.333333333333334,1371.4285714285713,-8C1442.8571428571427,-9.666666666666666,1471.4285714285713,34.541666666666664,1542.8571428571427,36C1614.285714285714,37.458333333333336,1642.857142857143,-1.4166666666666665,1714.2857142857142,-1C1785.7142857142856,-0.5833333333333334,1814.2857142857142,35.5,1885.7142857142856,38C1957.1428571428569,40.5,1985.7142857142856,10.583333333333334,2057.142857142857,11C2128.5714285714284,11.416666666666666,2157.142857142857,41.666666666666664,2228.5714285714284,40C2300,38.333333333333336,2312.2023809523807,-72,2400,3C2487.7976190476193,78,3254.1666666666665,213.125,2650,400C2045.8333333333335,586.875,156.25,795.8333333333334,-500,900" transform="matrix(1,0,0,1,0,238)" opacity="0.76"></path><path d="M-10,10C27.797619047619044,15.416666666666666,97.91666666666666,43.708333333333336,171.42857142857142,36C244.94047619047618,28.291666666666664,271.42857142857144,-26.791666666666668,342.85714285714283,-27C414.2857142857142,-27.208333333333332,442.8571428571428,31.875,514.2857142857142,35C585.7142857142857,38.125,614.2857142857142,-9.291666666666668,685.7142857142857,-12C757.1428571428571,-14.708333333333332,785.7142857142857,21.166666666666668,857.1428571428571,22C928.5714285714286,22.833333333333332,957.142857142857,-12.583333333333332,1028.5714285714284,-8C1099.9999999999998,-3.416666666666667,1128.5714285714287,44,1200,44C1271.4285714285713,44,1300,-6.333333333333334,1371.4285714285713,-8C1442.8571428571427,-9.666666666666666,1471.4285714285713,34.541666666666664,1542.8571428571427,36C1614.285714285714,37.458333333333336,1642.857142857143,-1.4166666666666665,1714.2857142857142,-1C1785.7142857142856,-0.5833333333333334,1814.2857142857142,35.5,1885.7142857142856,38C1957.1428571428569,40.5,1985.7142857142856,10.583333333333334,2057.142857142857,11C2128.5714285714284,11.416666666666666,2157.142857142857,41.666666666666664,2228.5714285714284,40C2300,38.333333333333336,2312.2023809523807,-72,2400,3C2487.7976190476193,78,3254.1666666666665,213.125,2650,400C2045.8333333333335,586.875,156.25,795.8333333333334,-500,900" transform="matrix(1,0,0,1,0,272)" opacity="0.88"></path><path d="M-10,10C27.797619047619044,15.416666666666666,97.91666666666666,43.708333333333336,171.42857142857142,36C244.94047619047618,28.291666666666664,271.42857142857144,-26.791666666666668,342.85714285714283,-27C414.2857142857142,-27.208333333333332,442.8571428571428,31.875,514.2857142857142,35C585.7142857142857,38.125,614.2857142857142,-9.291666666666668,685.7142857142857,-12C757.1428571428571,-14.708333333333332,785.7142857142857,21.166666666666668,857.1428571428571,22C928.5714285714286,22.833333333333332,957.142857142857,-12.583333333333332,1028.5714285714284,-8C1099.9999999999998,-3.416666666666667,1128.5714285714287,44,1200,44C1271.4285714285713,44,1300,-6.333333333333334,1371.4285714285713,-8C1442.8571428571427,-9.666666666666666,1471.4285714285713,34.541666666666664,1542.8571428571427,36C1614.285714285714,37.458333333333336,1642.857142857143,-1.4166666666666665,1714.2857142857142,-1C1785.7142857142856,-0.5833333333333334,1814.2857142857142,35.5,1885.7142857142856,38C1957.1428571428569,40.5,1985.7142857142856,10.583333333333334,2057.142857142857,11C2128.5714285714284,11.416666666666666,2157.142857142857,41.666666666666664,2228.5714285714284,40C2300,38.333333333333336,2312.2023809523807,-72,2400,3C2487.7976190476193,78,3254.1666666666665,213.125,2650,400C2045.8333333333335,586.875,156.25,795.8333333333334,-500,900" transform="matrix(1,0,0,1,0,306)" opacity="1.00"></path></g></svg>